#!OML:ASF Y:\EmotionMaleHayes\Project 1\Capture day 1\Session 1\Male1.ASF
:FULLY-SPECIFIED
:DEGREES
193
root 6.43564 15.3685 0.724717 57.2933 87.1807 71.3924
lowerback 15.8511 1.70639 -4.02652
upperback 6.45792 1.9925 -0.968342
thorax -2.10527 1.10536 0.906122
lowerneck -24.8566 0.740791 2.01994
upperneck 30.7038 0.415656 0.681509
head 14.8314 0.68142 0.0618889
rclavicle 1.59028e-015 -1.72943e-014
rhumerus 39.6941 17.1339 -45.2739
rradius 46.0976
rwrist -1.47888
rhand 18.8573 -35.5543
rfingers 7.12502
rthumb 43.4691 -59.6324
lclavicle 1.59028e-015 -1.72943e-014
lhumerus 42.372 -20.0015 38.8352
lradius 45.3947
lwrist -1.3124
lhand 19.57 -19.3924
lfingers 7.12502
lthumb 44.1343 4.44018
rfemur -4.7055 -7.4737 3.18492
rtibia 54.5543
rfoot -30.8964 -5.70513
rtoes -14.282
lfemur 0.57345 11.7152 -5.77751
ltibia 52.4773
lfoot -31.1831 -1.03159
ltoes -12.2307
194
root 6.43287 15.3666 0.724919 58.7072 87.1249 72.8049
lowerback 15.8543 1.71652 -4.07908
upperback 6.46641 1.99838 -1.02006
thorax -2.09757 1.10876 0.880467
lowerneck -24.9148 0.718279 2.03071
upperneck 30.7783 0.360823 0.730515
head 14.8777 0.66873 0.0706436
rclavicle 1.50082e-014 -6.95746e-015
rhumerus 39.6887 17.063 -45.3196
rradius 45.9967
rwrist -1.41238
rhand 18.8674 -35.4737
rfingers 7.12502
rthumb 43.4786 -59.5483
lclavicle 1.50082e-014 -6.95746e-015
lhumerus 42.4855 -20.0789 38.6793
lradius 45.3947
lwrist -1.20454
lhand 19.3808 -19.328
lfingers 7.12502
lthumb 43.9578 4.57065
rfemur -4.69496 -7.49845 3.08279
rtibia 54.506
rfoot -30.9244 -5.6972
rtoes -14.446
lfemur 0.512059 11.6753 -5.89147
ltibia 52.5421
lfoot -31.2246 -0.895788
ltoes -13.1919
195
root 6.43095 15.3652 0.726111 59.8445 87.0817 73.929
lowerback 15.7823 1.69514 -4.21298
upperback 6.53794 1.96161 -1.00175
thorax -1.98578 1.08751 0.985016
lowerneck -25.0257 0.725331 1.94926
upperneck 30.7711 0.384744 0.769562
head 14.8983 0.673249 0.10562
rclavicle -6.16232e-015 -4.17448e-015
rhumerus 39.766 17.048 -45.2411
rradius 46.1048
rwrist -1.44021
rhand 18.7655 -35.5312
rfingers 7.12502
rthumb 43.3833 -59.6403
lclavicle -6.16232e-015 -4.17448e-015
lhumerus 42.4978 -19.9015 38.6844
lradius 45.3988
lwrist -1.35509
lhand 19.3995 -19.3825
lfingers 7.12502
lthumb 43.9752 4.5096
rfemur -4.71471 -7.50979 3.01528
rtibia 54.4614
rfoot -30.9477 -5.72399
rtoes -14.7867
lfemur 0.462045 11.6774 -5.96624
ltibia 52.5746
lfoot -31.2288 -0.790035
ltoes -13.8621
196
root 6.42858 15.3665 0.725539 59.0373 87.1973 73.1091
lowerback 15.7929 1.63289 -4.17513
upperback 6.56781 1.88871 -0.916523
thorax -1.95828 1.05012 1.06614
lowerneck -25.1043 0.755956 1.90639
upperneck 30.7719 0.467794 0.6999
head 14.916 0.691185 0.100501
rclavicle -1.72694e-014 1.39149e-014
rhumerus 39.8812 17.1297 -45.172
rradius 46.1829
rwrist -1.50069
rhand 18.7006 -35.5251
rfingers 7.12502
rthumb 43.3228 -59.656
lclavicle -1.72694e-014 1.39149e-014
lhumerus 42.3533 -19.6887 38.7499
lradius 45.4468
lwrist -1.56626
lhand 19.6047 -19.4586
lfingers 7.12502
lthumb 44.1666 4.36189
rfemur -4.74874 -7.5292 3.17077
rtibia 54.5342
rfoot -30.9809 -5.69479
rtoes -14.8006
lfemur 0.412938 11.6947 -5.81865
ltibia 52.6387
lfoot -31.2327 -0.800584
ltoes -13.5998
197
root 6.42659 15.3669 0.723059 57.9037 87.2378 71.9777
lowerback 15.8463 1.61243 -4.14219
upperback 6.54847 1.86281 -0.871969
thorax -2.00649 1.03743 1.097
lowerneck -25.1049 0.769886 1.87174
upperneck 30.8199 0.518289 0.66417
head 14.938 0.703908 0.102074
rclavicle -2.23633e-015 2.48481e-014
rhumerus 39.8757 17.2276 -45.1219
rradius 46.2443
rwrist -1.59614
rhand 18.6793 -35.492
rfingers 7.12502
rthumb 43.3028 -59.63
lclavicle -2.23633e-015 2.48481e-014
lhumerus 42.2578 -19.6456 38.8227
lradius 45.4457
lwrist -1.59872
lhand 19.5762 -19.4114
lfingers 7.12502
lthumb 44.1401 4.41902
rfemur -4.79464 -7.52739 3.24149
rtibia 54.6394
rfoot -30.9809 -5.62261
rtoes -14.5882
lfemur 0.403521 11.7076 -5.75934
ltibia 52.6657
lfoot -31.2462 -0.795838
ltoes -13.3599
198
root 6.42627 15.3652 0.722044 58.4012 87.1759 72.5029
lowerback 15.8575 1.62973 -4.18522
upperback 6.53729 1.87733 -0.906099
thorax -2.02473 1.04491 1.08232
lowerneck -24.9861 0.757978 1.89235
upperneck 30.8039 0.499186 0.661711
head 14.9048 0.698903 0.0932423
rclavicle 9.59136e-015 2.18663e-015
rhumerus 39.7521 17.2446 -45.1435
rradius 46.3143
rwrist -1.6363
rhand 18.649 -35.54
rfingers 7.12502
rthumb 43.2745 -59.6882
lclavicle 9.59136e-015 2.18663e-015
lhumerus 42.2776 -19.7093 38.8075
lradius 45.4494
lwrist -1.59837
lhand 19.4239 -19.2537
lfingers 7.12502
lthumb 43.9981 4.62988
rfemur -4.77286 -7.52601 3.14717
rtibia 54.5982
rfoot -30.9042 -5.65713
rtoes -14.7411
lfemur 0.44366 11.703 -5.84346
ltibia 52.6312
lfoot -31.2137 -0.779711
ltoes -13.3704
